<svg xmlns="http://www.w3.org/2000/svg" viewBox="0 0 600 375">
  <defs>
    <radialGradient id="glow-cs" cx="50%" cy="40%" r="60%">
      <stop offset="0%" stop-color="#39ff88" stop-opacity="0.16"/>
      <stop offset="100%" stop-color="#39ff88" stop-opacity="0"/>
    </radialGradient>
    <pattern id="grid-cs" width="32" height="32" patternUnits="userSpaceOnUse">
      <path d="M0 32V0H32" fill="none" stroke="#1f2733" stroke-width="1"/>
    </pattern>
  </defs>

  <rect width="600" height="375" fill="#0a0e14"/>
  <rect width="600" height="375" fill="url(#grid-cs)"/>
  <rect width="600" height="375" fill="url(#glow-cs)"/>

  <rect x="0" y="0" width="600" height="36" fill="#11161f"/>
  <circle cx="20" cy="18" r="5" fill="#1f2733"/>
  <circle cx="38" cy="18" r="5" fill="#1f2733"/>
  <circle cx="56" cy="18" r="5" fill="#1f2733"/>
  <rect x="225" y="9" width="150" height="18" rx="9" fill="#0a0e14"/>
  <text x="300" y="22" text-anchor="middle" font-family="JetBrains Mono, monospace" font-size="11" fill="#8b98a9">cabañas.ia</text>

  <g transform="translate(300,205)" stroke="#39ff88" stroke-width="6" fill="none" stroke-linecap="round" stroke-linejoin="round">
    <path d="M-52 -34a14 14 0 0 1 14-14h76a14 14 0 0 1 14 14v44a14 14 0 0 1-14 14h-50l-26 22v-22h0a14 14 0 0 1-14-14v-44z"/>
    <path d="M44 -56l5 12 12 5-12 5-5 12-5-12-12-5 12-5z" fill="#39ff88" stroke="none"/>
  </g>

  <text x="300" y="320" text-anchor="middle" font-family="Space Grotesk, sans-serif" font-size="20" font-weight="700" fill="#e6edf3">Bot de IA · WhatsApp/IG</text>
</svg>
