<svg xmlns="http://www.w3.org/2000/svg" viewBox="0 0 600 375">
  <defs>
    <radialGradient id="glow-psi" cx="50%" cy="40%" r="60%">
      <stop offset="0%" stop-color="#a855f7" stop-opacity="0.18"/>
      <stop offset="100%" stop-color="#a855f7" stop-opacity="0"/>
    </radialGradient>
    <pattern id="grid-psi" width="32" height="32" patternUnits="userSpaceOnUse">
      <path d="M0 32V0H32" fill="none" stroke="#1f2733" stroke-width="1"/>
    </pattern>
  </defs>

  <rect width="600" height="375" fill="#0a0e14"/>
  <rect width="600" height="375" fill="url(#grid-psi)"/>
  <rect width="600" height="375" fill="url(#glow-psi)"/>

  <rect x="0" y="0" width="600" height="36" fill="#11161f"/>
  <circle cx="20" cy="18" r="5" fill="#1f2733"/>
  <circle cx="38" cy="18" r="5" fill="#1f2733"/>
  <circle cx="56" cy="18" r="5" fill="#1f2733"/>
  <rect x="210" y="9" width="180" height="18" rx="9" fill="#0a0e14"/>
  <text x="300" y="22" text-anchor="middle" font-family="JetBrains Mono, monospace" font-size="11" fill="#8b98a9">consultorio.local</text>

  <g transform="translate(300,205)" stroke="#a855f7" stroke-width="6" fill="none" stroke-linecap="round" stroke-linejoin="round">
    <rect x="-48" y="-46" width="96" height="92" rx="10"/>
    <path d="M-48 -22h96"/>
    <path d="M-26 -58v20M26 -58v20"/>
    <path d="M0 4c-16-12-28-22-28-34a14 14 0 0 1 28-6 14 14 0 0 1 28 6c0 12-12 22-28 34z" fill="#a855f7" stroke="none"/>
  </g>

  <text x="300" y="320" text-anchor="middle" font-family="Space Grotesk, sans-serif" font-size="20" font-weight="700" fill="#e6edf3">Gestión de pacientes</text>
</svg>
