<svg xmlns="http://www.w3.org/2000/svg" viewBox="0 0 600 375">
  <defs>
    <radialGradient id="glow-tt" cx="50%" cy="40%" r="60%">
      <stop offset="0%" stop-color="#a855f7" stop-opacity="0.18"/>
      <stop offset="100%" stop-color="#a855f7" stop-opacity="0"/>
    </radialGradient>
    <pattern id="grid-tt" width="32" height="32" patternUnits="userSpaceOnUse">
      <path d="M0 32V0H32" fill="none" stroke="#1f2733" stroke-width="1"/>
    </pattern>
  </defs>

  <rect width="600" height="375" fill="#0a0e14"/>
  <rect width="600" height="375" fill="url(#grid-tt)"/>
  <rect width="600" height="375" fill="url(#glow-tt)"/>

  <rect x="0" y="0" width="600" height="36" fill="#11161f"/>
  <circle cx="20" cy="18" r="5" fill="#1f2733"/>
  <circle cx="38" cy="18" r="5" fill="#1f2733"/>
  <circle cx="56" cy="18" r="5" fill="#1f2733"/>
  <rect x="195" y="9" width="210" height="18" rx="9" fill="#0a0e14"/>
  <text x="300" y="22" text-anchor="middle" font-family="JetBrains Mono, monospace" font-size="11" fill="#8b98a9">terminaltrading.local</text>

  <g transform="translate(300,205)" stroke="#a855f7" stroke-width="5" stroke-linecap="round">
    <path d="M-90 60V-60" opacity="0.5"/>
    <path d="M-90 60h180" opacity="0.5"/>
    <path d="M-60 30V-10"/>
    <rect x="-68" y="-30" width="16" height="20" fill="#a855f7" stroke="none"/>
    <path d="M-10 50V0"/>
    <rect x="-18" y="0" width="16" height="34" fill="none"/>
    <path d="M40 40V-40"/>
    <rect x="32" y="-20" width="16" height="40" fill="#a855f7" stroke="none"/>
  </g>

  <text x="300" y="320" text-anchor="middle" font-family="Space Grotesk, sans-serif" font-size="20" font-weight="700" fill="#e6edf3">TerminalTrading</text>
</svg>
